<svg width="758" height="1458" viewBox="0 0 758 1458" fill="none" xmlns="http://www.w3.org/2000/svg">
    <g clip-path="url(#clip0_56_2)">
        <path d="M360 412C360.013 412.843 360.025 413.685 360.038 414.554C361.559 515.471 363.098 616.388 365.502 754.477C365.56 757.795 365.618 761.113 365.677 764.432C365.698 765.636 365.698 765.636 365.72 766.865C365.928 778.74 366.127 790.615 366.32 802.49C367.963 903.451 371.573 1004.33 375.949 1105.21C376.019 1106.81 376.019 1106.81 376.09 1108.45C376.594 1120.03 377.111 1131.61 377.689 1143.18C377.986 1149.23 378.128 1155.26 378.063 1161.31C378.058 1162.17 378.053 1163.03 378.049 1163.92C378.038 1165.94 378.02 1167.97 378 1170C378.66 1170 379.32 1170 380 1170C379.989 1168.82 379.978 1167.64 379.967 1166.42C379.89 1154.42 380.225 1142.48 380.804 1130.49C380.96 1127.27 381.109 1124.06 381.257 1120.84C381.472 1116.17 381.69 1111.49 381.909 1106.82C383.978 1062.55 385.753 1018.29 387.25 974C387.292 972.775 387.333 971.551 387.376 970.289C387.895 954.971 388.409 939.653 388.894 924.334C388.967 922.026 389.042 919.718 389.118 917.409C389.873 894.345 390.376 871.279 390.811 848.206C390.868 845.143 390.927 842.08 390.985 839.017C391.264 824.456 391.538 809.894 391.809 795.332C391.875 791.808 391.941 788.283 392.007 784.759C393.569 701.616 394.891 618.472 396.048 535.323C396.063 534.291 396.077 533.26 396.092 532.196C396.135 529.118 396.178 526.039 396.22 522.961C396.234 521.961 396.248 520.962 396.263 519.932C396.331 515.021 396.399 510.11 396.467 505.199C396.898 474.131 397.398 443.065 398 412C418.761 414.741 450.189 429.189 465 444C465.116 447.007 465.165 449.989 465.17 452.997C465.175 453.936 465.179 454.875 465.183 455.842C465.194 458.967 465.194 462.092 465.191 465.216C465.191 466.295 465.191 467.375 465.191 468.487C465.167 490.523 464.292 512.466 463.102 534.466C462.813 539.857 462.539 545.249 462.263 550.641C461.717 561.253 461.157 571.863 460.592 582.473C460.125 591.253 459.664 600.032 459.206 608.812C459.14 610.086 459.073 611.36 459.005 612.673C458.938 613.955 458.871 615.237 458.802 616.559C456.939 652.293 455.036 688.025 453.12 723.756C453 726.007 452.879 728.257 452.758 730.508C448.635 807.461 444.46 884.411 437 1020C436.963 1020.67 436.926 1021.34 436.888 1022.03C435.025 1055.79 433.154 1089.55 431.267 1123.31C430.928 1129.38 430.589 1135.46 430.25 1141.53C428.995 1164.07 427.724 1186.61 426.402 1209.14C426.178 1212.95 425.956 1216.76 425.736 1220.57C425.277 1228.51 424.81 1236.46 424.318 1244.41C424.119 1247.63 423.924 1250.84 423.739 1254.06C422.855 1269.31 421.172 1284.05 418 1299C417.824 1299.84 417.649 1300.67 417.468 1301.53C416.214 1307.46 414.886 1313.37 413.543 1319.28C413.118 1321.16 412.693 1323.04 412.269 1324.93C411.146 1329.91 410.016 1334.89 408.885 1339.87C408.183 1342.96 407.483 1346.05 406.783 1349.14C400.74 1375.83 394.604 1402.5 388.25 1429.12C388.09 1429.79 387.931 1430.46 387.766 1431.15C386.728 1435.5 385.686 1439.85 384.641 1444.2C384.384 1445.26 384.128 1446.33 383.864 1447.43C383.631 1448.39 383.398 1449.36 383.157 1450.35C382.856 1451.6 382.856 1451.6 382.548 1452.87C382.103 1454.6 381.565 1456.31 381 1458C379.68 1458 378.36 1458 377 1458C374.655 1448.4 372.319 1438.81 369.992 1429.21C368.933 1424.84 367.871 1420.47 366.8 1416.1C360.055 1388.59 353.784 1360.98 347.588 1333.34C346.941 1330.45 346.292 1327.57 345.643 1324.68C344.607 1320.07 343.576 1315.47 342.548 1310.86C342.165 1309.14 341.781 1307.43 341.395 1305.72C340.858 1303.33 340.327 1300.94 339.797 1298.55C339.643 1297.87 339.49 1297.2 339.332 1296.5C336.982 1285.82 335.7 1275.09 335.008 1264.19C334.923 1262.91 334.838 1261.64 334.75 1260.33C334.511 1256.71 334.28 1253.09 334.051 1249.47C333.899 1247.06 333.745 1244.65 333.59 1242.25C329.81 1183.23 326.692 1124.16 323.44 1065.11C322.801 1053.52 322.162 1041.93 321.521 1030.33C316.851 945.825 312.228 861.312 305.575 736.254C305.325 731.542 305.075 726.831 304.825 722.12C303.313 693.604 301.81 665.088 300.332 636.57C299.581 622.068 298.819 607.567 298.041 593.066C297.426 581.625 296.821 570.183 296.224 558.741C295.891 552.377 295.554 546.014 295.206 539.651C294.339 523.772 293.574 507.893 293 492C292.937 490.292 292.937 490.292 292.872 488.55C292.627 481.743 292.44 474.938 292.333 468.128C292.294 466.022 292.241 463.916 292.171 461.811C291.665 445.773 291.665 445.773 294.904 441.472C297.247 439.877 299.337 438.94 302 438C303.449 437.148 304.885 436.271 306.297 435.359C346.273 411.728 346.273 411.728 360 412Z" fill="white"/>
        <path d="M618 405C622.79 405.611 626.995 407.008 631.438 408.824C632.535 409.265 632.535 409.265 633.655 409.714C636.106 410.699 638.553 411.693 641 412.688C642.756 413.396 644.512 414.104 646.269 414.812C651.13 416.774 655.987 418.745 660.844 420.718C664.091 422.037 667.339 423.354 670.588 424.671C686.404 431.084 702.207 437.529 718 444C719.476 444.604 719.476 444.604 720.981 445.22C726.256 447.38 731.528 449.547 736.796 451.725C738.331 452.359 739.867 452.992 741.404 453.622C743.482 454.476 745.558 455.336 747.633 456.199C748.776 456.672 749.92 457.145 751.098 457.632C753.817 458.914 755.81 459.957 758 462C758.515 464.282 758.515 464.282 758.534 467.002C758.549 468.026 758.565 469.051 758.582 470.107C758.574 471.785 758.574 471.785 758.566 473.496C758.573 474.672 758.579 475.847 758.585 477.058C758.592 479.573 758.589 482.087 758.577 484.602C758.563 488.309 758.596 492.014 758.635 495.721C758.673 508.176 758.043 520.172 756.152 532.487C753.75 548.261 751.907 564.089 750.21 579.952C750.03 581.639 750.03 581.639 749.846 583.36C749.072 590.609 748.308 597.858 747.546 605.108C746.918 611.064 746.285 617.019 745.652 622.974C744.361 635.127 743.074 647.279 741.791 659.432C740.04 676.022 738.28 692.61 736.519 709.199C735.696 716.957 734.872 724.715 734.049 732.474C733.967 733.25 733.884 734.026 733.8 734.826C731.848 753.222 729.9 771.619 727.952 790.016C727.867 790.819 727.782 791.622 727.695 792.45C726.919 799.774 726.144 807.098 725.369 814.423C723.465 832.407 721.561 850.39 719.657 868.374C719.528 869.584 719.528 869.584 719.398 870.819C717.447 889.24 715.495 907.662 713.541 926.083C713.458 926.857 713.376 927.631 713.292 928.429C712.472 936.156 711.652 943.884 710.832 951.611C709.072 968.188 707.316 984.765 705.564 1001.34C704.29 1013.41 703.012 1025.47 701.732 1037.53C701.038 1044.06 700.347 1050.59 699.659 1057.12C699.03 1063.1 698.396 1069.08 697.759 1075.05C697.529 1077.22 697.301 1079.38 697.075 1081.54C696.767 1084.48 696.453 1087.42 696.138 1090.36C696.008 1091.62 696.008 1091.62 695.876 1092.9C694.161 1108.68 694.161 1108.68 690.991 1112.29C690.182 1112.76 689.373 1113.24 688.539 1113.73C687.641 1114.28 686.743 1114.83 685.817 1115.4C684.888 1115.93 683.958 1116.46 683 1117C682.135 1117.53 681.27 1118.05 680.378 1118.6C677.729 1120.2 675.057 1121.76 672.375 1123.31C665.95 1127.07 659.546 1130.84 653.25 1134.81C646.403 1139.13 639.521 1143.39 632.625 1147.62C631.514 1148.31 630.403 1148.99 629.259 1149.69C626.976 1151.1 624.694 1152.5 622.411 1153.9C616.939 1157.27 611.47 1160.63 606 1164C604.396 1164.99 604.396 1164.99 602.759 1165.99C597.303 1169.35 591.848 1172.71 586.395 1176.07C576.008 1182.47 565.614 1188.85 555.188 1195.19C547.141 1200.08 539.121 1205.01 531.119 1209.97C514.801 1220.09 498.448 1230.15 482.025 1240.1C477.698 1242.73 473.387 1245.37 469.117 1248.09C468.374 1248.57 467.63 1249.04 466.864 1249.53C465.499 1250.4 464.138 1251.27 462.781 1252.16C458.329 1255 458.329 1255 455 1255C454.795 1251.65 454.672 1248.3 454.563 1244.94C454.504 1243.99 454.445 1243.05 454.385 1242.08C454.216 1235.15 454.216 1235.15 456.46 1231.87C458.225 1230.09 460.027 1228.54 462 1227C463.233 1225.92 464.463 1224.84 465.688 1223.75C466.687 1222.89 466.687 1222.89 467.707 1222.01C470.469 1219.59 473.174 1217.11 475.875 1214.62C481.216 1209.71 486.598 1204.85 492 1200C493.667 1198.5 495.334 1197 497 1195.5C502 1191 502 1191 507 1186.5C507.828 1185.75 508.655 1185.01 509.508 1184.24C511.147 1182.77 512.788 1181.29 514.43 1179.82C519.02 1175.7 523.585 1171.55 528.125 1167.38C531.994 1163.82 535.903 1160.32 539.875 1156.88C543.155 1153.98 546.363 1151.01 549.58 1148.04C552.335 1145.51 555.108 1143.01 557.938 1140.56C561.53 1137.45 565.016 1134.23 568.5 1131C572.586 1127.21 576.704 1123.48 580.918 1119.83C584.135 1117 587.28 1114.09 590.433 1111.19C595.256 1106.76 600.124 1102.37 605 1098C606.667 1096.5 608.334 1095 610 1093.5C612.605 1091.16 615.21 1088.81 617.816 1086.47C619.176 1085.25 619.176 1085.25 620.563 1084C621.389 1083.26 622.215 1082.51 623.066 1081.75C626.771 1078.4 626.458 1075.28 626.877 1070.44C626.959 1069.53 627.042 1068.62 627.127 1067.68C627.403 1064.61 627.673 1061.54 627.943 1058.47C628.139 1056.29 628.335 1054.11 628.531 1051.92C629.065 1045.96 629.594 1040 630.122 1034.04C630.682 1027.72 631.247 1021.41 631.812 1015.09C632.87 1003.25 633.923 991.405 634.974 979.564C635.73 971.035 636.489 962.507 637.248 953.978C639.978 923.328 642.696 892.677 645.407 862.026C645.73 858.375 646.054 854.724 646.377 851.073C648.408 828.119 650.439 805.164 652.467 782.21C652.926 777.018 653.385 771.825 653.844 766.633C653.958 765.344 654.072 764.054 654.19 762.726C656.003 742.217 657.819 721.709 659.637 701.201C661.643 678.567 663.646 655.933 665.645 633.298C666.727 621.052 667.811 608.805 668.898 596.558C669.816 586.217 670.731 575.876 671.642 565.534C672.106 560.272 672.571 555.011 673.04 549.749C673.469 544.936 673.894 540.122 674.315 535.307C674.468 533.569 674.623 531.832 674.779 530.094C675.531 521.714 676.196 513.424 676 505C675.239 504.592 674.477 504.183 673.693 503.762C670.85 502.237 668.008 500.711 665.166 499.183C663.94 498.524 662.713 497.866 661.486 497.208C659.715 496.258 657.945 495.307 656.176 494.355C655.113 493.785 654.05 493.214 652.954 492.626C651.492 491.821 651.492 491.821 650 491C649.117 490.611 648.233 490.222 647.323 489.822C643.798 487.057 643.002 483.671 641.652 479.496C641.359 478.637 641.065 477.778 640.762 476.893C639.804 474.08 638.871 471.259 637.938 468.438C637.282 466.495 636.624 464.552 635.965 462.611C634.959 459.648 633.955 456.685 632.958 453.72C630.826 447.386 628.624 441.082 626.352 434.797C625.928 433.622 625.928 433.622 625.497 432.424C624.427 429.458 623.357 426.492 622.272 423.531C621.539 421.528 620.817 419.52 620.098 417.512C619.69 416.392 619.283 415.273 618.864 414.12C617.981 410.93 617.834 408.292 618 405Z" fill="white"/>
        <path d="M140 405C139.544 411.024 138.489 416.325 136.41 421.988C136.15 422.722 135.89 423.455 135.622 424.21C134.778 426.581 133.92 428.947 133.063 431.312C132.473 432.96 131.885 434.608 131.297 436.257C129.821 440.392 128.334 444.524 126.845 448.655C125.331 452.858 123.83 457.067 122.329 461.275C121.276 464.228 120.221 467.18 119.16 470.13C118.785 471.175 118.41 472.22 118.023 473.297C117.664 474.272 117.304 475.248 116.934 476.253C115.965 478.938 115.965 478.938 115.437 481.536C114.579 485.209 113.838 487.322 110.852 489.739C108.085 491.404 105.283 492.847 102.375 494.25C100.445 495.234 98.5156 496.219 96.586 497.203C95.6523 497.667 94.7187 498.13 93.7569 498.607C89.7709 500.621 85.8861 502.802 82 505C81.9028 511.674 82.1583 518.227 82.7625 524.873C82.8861 526.292 82.8861 526.292 83.0123 527.739C83.2885 530.897 83.571 534.055 83.8535 537.212C84.0553 539.503 84.2567 541.795 84.4577 544.086C85.0105 550.375 85.5688 556.662 86.128 562.95C86.6689 569.037 87.2048 575.125 87.7413 581.213C88.8387 593.664 89.9402 606.115 91.0441 618.566C92.1373 630.897 93.2288 643.228 94.318 655.559C94.3858 656.327 94.4536 657.094 94.5234 657.885C94.8677 661.783 95.2119 665.68 95.5562 669.578C97.9939 697.18 100.436 724.781 102.88 752.382C105.253 779.17 107.622 805.959 109.99 832.749C110.062 833.574 110.135 834.399 110.211 835.25C110.797 841.89 111.384 848.53 111.971 855.17C114.298 881.517 116.628 907.864 118.958 934.21C119.64 941.922 120.322 949.634 121.004 957.346C122.438 973.563 123.872 989.781 125.309 1006C125.903 1012.7 126.497 1019.41 127.089 1026.12C127.632 1032.26 128.176 1038.39 128.72 1044.53C128.917 1046.75 129.113 1048.98 129.309 1051.2C129.576 1054.22 129.844 1057.23 130.112 1060.25C130.188 1061.12 130.264 1061.98 130.342 1062.87C130.554 1065.25 130.776 1067.62 131 1070C131.073 1070.83 131.147 1071.66 131.222 1072.52C131.3 1073.32 131.378 1074.13 131.458 1074.96C131.524 1075.68 131.591 1076.4 131.66 1077.14C132.174 1079.95 133.446 1081.28 135.563 1083.12C136.291 1083.78 137.019 1084.44 137.77 1085.11C138.506 1085.74 139.242 1086.36 140 1087C140.934 1087.83 140.934 1087.83 141.887 1088.67C143.162 1089.79 144.445 1090.91 145.734 1092.02C148.533 1094.47 151.267 1096.98 154 1099.5C157.278 1102.52 160.566 1105.52 163.938 1108.44C168.12 1112.06 172.163 1115.83 176.22 1119.6C179.735 1122.85 183.296 1126.03 186.918 1129.17C190.135 1132 193.28 1134.91 196.433 1137.81C201.256 1142.24 206.124 1146.63 211 1151C212.667 1152.5 214.334 1154 216 1155.5C216.825 1156.24 217.65 1156.99 218.5 1157.75C226 1164.5 226 1164.5 228.508 1166.76C230.147 1168.23 231.788 1169.71 233.43 1171.18C238.02 1175.3 242.584 1179.45 247.125 1183.62C250.994 1187.18 254.903 1190.68 258.875 1194.12C262.155 1197.02 265.363 1199.99 268.58 1202.96C271.335 1205.49 274.107 1207.99 276.938 1210.44C281.112 1214.05 285.147 1217.82 289.196 1221.57C292.946 1225.04 296.741 1228.45 300.609 1231.79C301.428 1232.5 302.233 1233.23 303 1234C303.087 1235.56 303.107 1237.13 303.098 1238.69C303.094 1239.64 303.091 1240.58 303.088 1241.55C303.08 1242.55 303.071 1243.54 303.062 1244.56C303.058 1245.56 303.053 1246.56 303.049 1247.58C303.037 1250.06 303.021 1252.53 303 1255C299.638 1254.46 297.183 1253.75 294.34 1251.88C293.643 1251.42 292.947 1250.97 292.229 1250.51C291.473 1250.01 290.717 1249.51 289.938 1249C281.749 1243.71 273.467 1238.6 265.125 1233.56C262.703 1232.1 260.281 1230.63 257.859 1229.16C257.27 1228.81 256.68 1228.45 256.073 1228.08C249.128 1223.87 242.228 1219.59 235.328 1215.3C220.991 1206.4 206.61 1197.57 192.188 1188.81C184.139 1183.92 176.116 1178.99 168.113 1174.03C157.873 1167.68 147.608 1161.37 137.344 1155.06C134.02 1153.01 130.697 1150.97 127.375 1148.92C117.919 1143.09 108.46 1137.27 98.9624 1131.51C95.2131 1129.23 91.4715 1126.95 87.7295 1124.66C84.9671 1122.98 82.1913 1121.33 79.4141 1119.67C77.6714 1118.62 75.9292 1117.56 74.1875 1116.5C73.3864 1116.03 72.5854 1115.56 71.76 1115.08C70.6626 1114.41 70.6626 1114.41 69.543 1113.72C68.5843 1113.15 68.5843 1113.15 67.6062 1112.56C63.0494 1108.13 63.2218 1100.02 62.5283 1094.04C62.4006 1092.98 62.2729 1091.91 62.1414 1090.82C60.855 1080.02 59.6868 1069.2 58.5469 1058.39C58.3171 1056.22 58.0871 1054.06 57.8569 1051.89C57.2328 1046.02 56.6115 1040.15 55.9907 1034.27C55.3175 1027.91 54.6416 1021.54 53.966 1015.18C52.8732 1004.88 51.7815 994.584 50.6909 984.286C48.8473 966.878 46.9997 949.47 45.1509 932.062C44.4369 925.34 43.7231 918.618 43.0092 911.896C42.8903 910.776 42.8903 910.776 42.769 909.633C40.886 891.901 39.004 874.168 37.1226 856.436C37.0404 855.661 36.9582 854.886 36.8735 854.088C34.9572 836.027 33.0417 817.967 31.1279 799.907C31.0457 799.131 30.9635 798.355 30.8787 797.555C30.2159 791.299 29.553 785.044 28.8901 778.788C26.1472 752.902 23.4004 727.017 20.6491 701.132C20.2593 697.464 19.8695 693.796 19.4798 690.129C19.4031 689.407 19.3264 688.686 19.2474 687.942C18.0225 676.414 16.8017 664.885 15.5827 653.355C14.3538 641.734 13.1206 630.113 11.8835 618.492C11.2156 612.218 10.5495 605.943 9.88869 599.668C9.16763 592.823 8.44096 585.98 7.70708 579.137C7.59304 578.073 7.479 577.01 7.36151 575.914C5.72482 560.745 3.85551 545.623 1.55705 530.539C-0.34472 517.752 -0.86468 505.132 -0.816635 492.206C-0.812356 488.45 -0.879138 484.699 -0.94725 480.943C-0.954701 478.526 -0.958127 476.109 -0.957016 473.691C-0.982621 472.583 -1.00823 471.475 -1.03461 470.334C-0.924082 463.044 -0.924083 463.044 1.48682 460.321C3.59614 458.925 5.65917 457.956 8.00002 457C8.77861 456.645 9.55721 456.291 10.3594 455.925C12.9507 454.776 15.5661 453.714 18.1992 452.664C19.1747 452.268 20.1501 451.872 21.1551 451.464C24.3298 450.177 27.5086 448.901 30.6875 447.625C32.9105 446.726 35.1333 445.827 37.3557 444.927C41.8196 443.12 46.285 441.317 50.752 439.518C56.1664 437.337 61.5768 435.147 66.9844 432.949C71.4228 431.146 75.8614 429.342 80.3032 427.547C87.7159 424.551 95.1231 421.543 102.52 418.509C106.415 416.912 110.313 415.32 114.211 413.729C116.098 412.957 117.984 412.183 119.87 411.405C122.485 410.328 125.103 409.259 127.723 408.191C128.503 407.867 129.284 407.543 130.088 407.209C133.655 405.765 136.099 405 140 405Z" fill="white"/>
        <path d="M397.832 320.531C399.065 320.91 400.298 321.289 401.569 321.679C404.248 322.501 406.924 323.334 409.598 324.176C413.897 325.529 418.203 326.859 422.511 328.186C427.123 329.607 431.734 331.031 436.343 332.462C448.067 336.103 459.806 339.691 471.555 343.25C472.415 343.511 473.275 343.771 474.161 344.04C478.482 345.349 482.804 346.658 487.125 347.967C499.011 351.566 510.894 355.177 522.773 358.801C527.889 360.361 533.008 361.908 538.13 363.449C541.751 364.54 545.37 365.637 548.989 366.737C550.724 367.262 552.46 367.784 554.196 368.304C556.602 369.024 559.005 369.754 561.407 370.486C562.12 370.697 562.832 370.907 563.566 371.124C571.696 373.629 571.696 373.629 573.963 377.751C574.291 378.724 574.291 378.724 574.625 379.717C575.013 380.835 575.013 380.835 575.408 381.976C575.674 382.787 575.941 383.598 576.215 384.434C576.507 385.287 576.799 386.14 577.101 387.02C578.058 389.822 578.998 392.63 579.938 395.437C580.931 398.358 581.93 401.277 582.929 404.196C583.61 406.183 584.289 408.172 584.966 410.161C588.295 419.922 591.785 429.622 595.312 439.312C596.124 441.544 596.935 443.775 597.746 446.007C598.435 447.904 599.126 449.8 599.818 451.697C603.273 461.352 603.273 461.352 603 466C597.688 465.443 593.748 463.623 589.086 461.203C588.328 460.818 587.569 460.433 586.788 460.037C585.161 459.211 583.535 458.381 581.912 457.549C577.605 455.343 573.283 453.168 568.961 450.992C568.099 450.558 567.237 450.123 566.35 449.676C555.328 444.133 544.148 438.957 532.91 433.868C530.883 432.947 528.859 432.019 526.836 431.089C489.981 414.166 452.398 399.081 414.101 385.736C411.963 384.987 409.828 384.228 407.693 383.466C404.224 382.228 400.748 381.009 397.266 379.805C395.381 379.149 393.502 378.477 391.623 377.805C378.481 373.337 369.289 376.922 356.625 381.25C355.021 381.793 353.416 382.335 351.812 382.878C292.426 403.066 234.51 427.966 178.531 456.246C177.543 456.745 177.543 456.745 176.535 457.254C173.473 458.801 170.419 460.361 167.373 461.938C166.319 462.477 165.265 463.015 164.18 463.57C163.269 464.042 162.359 464.514 161.421 465C159 466 159 466 155 466C155.546 460.337 156.647 455.442 158.59 450.109C158.98 449.008 158.98 449.008 159.378 447.884C160.224 445.503 161.08 443.127 161.938 440.75C162.529 439.092 163.119 437.433 163.709 435.774C165.188 431.623 166.675 427.474 168.165 423.327C169.407 419.866 170.641 416.402 171.875 412.937C173.135 409.4 174.397 405.863 175.668 402.329C177.429 397.436 179.168 392.541 180.809 387.605C181.078 386.805 181.348 386.004 181.625 385.179C182.103 383.75 182.571 382.317 183.025 380.88C184.342 376.966 185.555 375.214 189 373C191.125 372.128 191.125 372.128 193.456 371.416C194.346 371.14 195.237 370.863 196.154 370.579C197.127 370.286 198.099 369.993 199.102 369.691C200.136 369.373 201.17 369.055 202.236 368.727C205.697 367.664 209.161 366.613 212.625 365.562C215.091 364.808 217.556 364.054 220.021 363.298C226.648 361.27 233.278 359.254 239.909 357.242C243.957 356.013 248.003 354.783 252.05 353.551C262.953 350.234 273.857 346.92 284.769 343.63C287.546 342.793 290.324 341.955 293.102 341.117C293.79 340.91 294.479 340.702 295.188 340.488C304.581 337.655 313.963 334.784 323.335 331.881C328.421 330.306 333.51 328.742 338.599 327.181C342.717 325.917 346.829 324.64 350.939 323.351C354.077 322.371 357.223 321.414 360.367 320.453C361.474 320.101 362.58 319.749 363.72 319.386C376.021 315.677 385.711 316.659 397.832 320.531Z" fill="white"/>
        <path d="M378.688 -1.0625C380.84 -0.947021 380.84 -0.947021 383 0C384.877 2.39819 384.877 2.39819 386.746 5.58984C387.087 6.16725 387.428 6.74466 387.779 7.33957C391.855 14.3184 395.621 21.4695 399.375 28.625C400.12 30.0376 400.866 31.4501 401.612 32.8623C403.42 36.2882 405.223 39.7166 407.025 43.1459C408.431 45.8204 409.843 48.4922 411.254 51.1641C413.51 55.4388 415.764 59.7145 418 64C418.405 64.7245 418.81 65.4489 419.227 66.1953C421.197 70.794 420.735 76.0285 419.02 80.6289C417.207 84.2823 415.203 87.6975 412.929 91.0856C410.466 95.4367 410.485 99.2436 410.645 104.15C410.668 105.509 410.668 105.509 410.691 106.895C410.973 119.477 411.85 132.039 412.68 144.594C412.856 147.319 413.029 150.045 413.203 152.77C413.567 158.455 413.936 164.14 414.308 169.824C414.826 177.735 415.336 185.646 415.844 193.557C416.57 204.863 417.3 216.169 418.039 227.475C418.117 228.668 418.194 229.862 418.275 231.092C418.689 237.394 419.116 243.695 419.559 249.995C419.697 251.961 419.697 251.961 419.838 253.967C420.014 256.462 420.191 258.956 420.371 261.45C420.945 269.588 421.262 277.652 421.125 285.812C421.116 286.922 421.107 288.031 421.098 289.174C421.075 291.783 421.043 294.391 421 297C415.661 296.452 411.172 295.062 406.23 292.953C404.75 292.349 403.269 291.746 401.787 291.145C399.484 290.201 397.186 289.249 394.896 288.273C385.179 283.703 385.179 283.703 374.855 283.754C373.22 284.466 371.603 285.219 370 286C368.246 286.67 366.491 287.339 364.729 287.991C360.848 289.432 356.997 290.953 353.143 292.465C351.225 293.216 349.304 293.958 347.383 294.699C346.252 295.141 345.122 295.583 343.958 296.038C341 297 341 297 337 297C336.425 274.69 338.005 252.569 339.543 230.327C339.893 225.225 340.233 220.122 340.573 215.019C341.118 206.847 341.668 198.674 342.222 190.502C343.158 176.676 344.089 162.85 344.986 149.022C345.277 144.54 345.578 140.059 345.882 135.577C346.572 125.165 347.171 114.751 347.348 104.316C347.375 103.486 347.401 102.656 347.429 101.801C347.474 93.3321 343.78 87.7711 339 81C336.932 74.7958 337.261 68.9287 339.984 62.9844C340.885 61.2285 341.808 59.484 342.75 57.75C343.244 56.804 343.737 55.858 344.246 54.8833C345.808 51.9092 347.4 48.9534 349 46C349.502 45.0645 350.004 44.1289 350.521 43.165C353.474 37.6671 356.471 32.1948 359.492 26.7344C361.037 23.9325 362.569 21.1236 364.098 18.3125C365.086 16.5 366.074 14.6875 367.063 12.875C367.516 12.0395 367.969 11.2041 368.436 10.3433C368.86 9.56741 369.285 8.79155 369.723 7.99219C370.276 6.97681 370.276 6.97681 370.84 5.94092C374.264 0.21217 374.264 0.21217 378.688 -1.0625Z" fill="white"/>
    </g>
    <defs>
        <clipPath id="clip0_56_2">
            <rect width="758" height="1458" fill="white"/>
        </clipPath>
    </defs>
</svg>